<svg width="51" height="41" viewBox="0 0 51 41" fill="none" xmlns="http://www.w3.org/2000/svg">
<g clip-path="url(#clip0)">
<path d="M27.451 31.2656L49.7012 13.4651C50.2163 13.0534 50.5 12.5038 50.5 11.9178C50.5 11.3318 50.2163 10.7822 49.7012 10.3705L48.063 9.0596C46.9956 8.2066 45.2606 8.2066 44.1948 9.0596L25.5104 24.0071L6.80523 9.04301C6.2902 8.63131 5.60362 8.40399 4.87151 8.40399C4.13859 8.40399 3.45201 8.63131 2.93657 9.04301L1.29877 10.3539C0.783737 10.7659 0.5 11.3152 0.5 11.9012C0.5 12.4872 0.783737 13.0368 1.29877 13.4485L23.5693 31.2656C24.086 31.6783 24.7758 31.9049 25.5091 31.9036C26.2453 31.9049 26.9347 31.6783 27.451 31.2656Z" fill="white"/>
</g>
<defs>
<clipPath id="clip0">
<rect width="40" height="50" fill="white" transform="translate(50.5 0.153931) rotate(90)"/>
</clipPath>
</defs>
</svg>
