<?xml version="1.0" encoding="UTF-8" standalone="no"?>
<svg
   xmlns:dc="http://purl.org/dc/elements/1.1/"
   xmlns:cc="http://creativecommons.org/ns#"
   xmlns:rdf="http://www.w3.org/1999/02/22-rdf-syntax-ns#"
   xmlns:svg="http://www.w3.org/2000/svg"
   xmlns="http://www.w3.org/2000/svg"
   xmlns:sodipodi="http://sodipodi.sourceforge.net/DTD/sodipodi-0.dtd"
   xmlns:inkscape="http://www.inkscape.org/namespaces/inkscape"
   version="1.1"
   id="svg2"
   xml:space="preserve"
   width="412.84"
   height="448"
   viewBox="0 0 412.84 448"
   sodipodi:docname="ORB_digital-emblem-CMYK.eps"><metadata
     id="metadata8"><rdf:RDF><cc:Work
         rdf:about=""><dc:format>image/svg+xml</dc:format><dc:type
           rdf:resource="http://purl.org/dc/dcmitype/StillImage" /></cc:Work></rdf:RDF></metadata><defs
     id="defs6" /><sodipodi:namedview
     pagecolor="#ffffff"
     bordercolor="#666666"
     borderopacity="1"
     objecttolerance="10"
     gridtolerance="10"
     guidetolerance="10"
     inkscape:pageopacity="0"
     inkscape:pageshadow="2"
     inkscape:window-width="640"
     inkscape:window-height="480"
     id="namedview4" /><g
     id="g10"
     inkscape:groupmode="layer"
     inkscape:label="ink_ext_XXXXXX"
     transform="matrix(1.3333333,0,0,-1.3333333,0,448)"><g
       id="g12"
       transform="scale(0.1)"><path
         d="m 717.23,1392.17 c 10.18,-59.23 7.399,-115.99 5.547,-187.49 -1.148,-43.78 -9.379,-94.44 -29.972,-136.71 C 640.766,961.238 566.199,890.859 495.609,831.641 c -18.879,73.257 -31.851,145.781 -39.472,220.079 61.968,49.69 141.761,111.23 213.621,235.42 -0.031,0.03 -0.063,0.05 -0.09,0.08 23.496,38.94 39.336,73.62 47.562,104.95"
         style="fill:#1d3c85;fill-opacity:1;fill-rule:nonzero;stroke:none"
         id="path14" /><path
         d="m 193.461,1876.19 c -55.098,60.01 -81.086,135.57 -60.563,186.82 60.016,92 183.422,174.95 326.231,236.46 8.617,-90.28 4.019,-287.41 3.726,-287.5 -100.992,-31.25 -199.882,-75.33 -269.394,-135.78"
         style="fill:#1d3c85;fill-opacity:1;fill-rule:nonzero;stroke:none"
         id="path16" /><path
         d="m 323.074,663.719 c -0.054,-0.09 -0.113,-0.168 -0.164,-0.239 98.547,-153.5 288.028,-226.039 503.379,-256.32 4.336,-24.691 9.242,-52.988 14.574,-83.699 7.379,-42.582 29.223,-135.031 75.469,-136.461 -326.91,10.121 -574.254,115.352 -639.254,373.898 -22.539,89.653 -26.969,160.082 -18.789,217.711 11.75,-35.339 33.258,-73.519 64.785,-114.89"
         style="fill:#1d3c85;fill-opacity:1;fill-rule:nonzero;stroke:none"
         id="path18" /><path
         d="m 344.145,694 c -54.934,74.672 -72.727,135.41 -54.254,184.449 25.195,47.992 61.582,85.321 101.964,120.422 9.594,-72.531 24.258,-143.859 44.407,-216.199 C 400.832,753.301 368.82,725 344.145,694"
         style="fill:#1d3c85;fill-opacity:1;fill-rule:nonzero;stroke:none"
         id="path20" /><path
         d="m 526.797,2326.49 c 56.211,20.76 114.203,38.18 171.535,51.51 l 72.363,-303.99 c -62.703,-6.36 -148.129,-19.6 -237.062,-42.17 5.558,103.44 3.367,200.15 -6.836,294.65"
         style="fill:#1d3c85;fill-opacity:1;fill-rule:nonzero;stroke:none"
         id="path22" /><path
         d="m 2379.44,1393.18 c -10.19,-59.25 -7.41,-116 -5.55,-187.5 1.14,-43.78 9.38,-94.43 29.97,-136.71 52.03,-106.732 126.6,-177.118 197.2,-236.329 18.87,73.25 31.84,145.781 39.47,220.089 -61.97,49.68 -141.77,111.21 -213.62,235.41 0.03,0.03 0.06,0.05 0.09,0.08 -23.5,38.94 -39.34,73.62 -47.56,104.96"
         style="fill:#1d3c85;fill-opacity:1;fill-rule:nonzero;stroke:none"
         id="path24" /><path
         d="m 2903.2,1877.19 c 55.1,60 81.09,135.57 60.56,186.82 -60.01,92 -183.42,174.96 -326.23,236.45 -8.61,-90.27 -4.01,-287.4 -3.73,-287.49 101,-31.25 199.89,-75.33 269.4,-135.78"
         style="fill:#1d3c85;fill-opacity:1;fill-rule:nonzero;stroke:none"
         id="path26" /><path
         d="m 2773.59,664.719 c 0.06,-0.09 0.11,-0.168 0.16,-0.239 -98.54,-153.511 -288.02,-226.039 -503.38,-256.32 -4.33,-24.691 -9.23,-53 -14.57,-83.691 -7.38,-42.59 -29.22,-135.039 -75.46,-136.469 326.9,10.109 574.24,115.352 639.24,373.91 22.54,89.641 26.98,160.078 18.79,217.699 -11.75,-35.339 -33.25,-73.519 -64.78,-114.89"
         style="fill:#1d3c85;fill-opacity:1;fill-rule:nonzero;stroke:none"
         id="path28" /><path
         d="m 2752.52,695.012 c 54.93,74.648 72.73,135.41 54.25,184.437 -25.19,48 -61.58,85.313 -101.96,120.422 -9.59,-72.531 -24.26,-143.859 -44.41,-216.199 35.43,-29.383 67.45,-57.672 92.12,-88.66"
         style="fill:#1d3c85;fill-opacity:1;fill-rule:nonzero;stroke:none"
         id="path30" /><path
         d="m 2569.87,2327.49 c -56.21,20.76 -114.2,38.17 -171.54,51.51 l -72.36,-303.99 c 62.71,-6.36 148.13,-19.6 237.06,-42.17 -5.57,103.45 -3.37,200.14 6.84,294.65"
         style="fill:#1d3c85;fill-opacity:1;fill-rule:nonzero;stroke:none"
         id="path32" /><path
         d="m 2151.33,2602 c -64,-52 -107,-137 -155,-254 -13,-31 -22,-47 -42,-40 -111,36 -256,61 -406,61 -150,0 -295,-26 -406,-61 -20,-6 -29,10 -42,40 -49,117 -92,202 -154.998,254 19.004,-67 -20.996,-143 -25.996,-162 -30,-121 84.994,-189 221.994,-189 11,0 802,0 812,0 138,0 252.01,69 222.01,189 -3.01,19 -43.01,95 -24.01,162"
         style="fill:#1d3c85;fill-opacity:1;fill-rule:nonzero;stroke:none"
         id="path34" /><path
         d="m 2189.33,2604 c -18.99,-39 -2,-94 14,-134 29,1 77.01,-3 172.01,-29 l 50,216 c -188.01,22 -226.01,-31 -236.01,-53"
         style="fill:#1d3c85;fill-opacity:1;fill-rule:nonzero;stroke:none"
         id="path36" /><path
         d="m 907.332,2604 c -10,22 -47.996,74 -235,54 l 50,-216 c 95,26 143,30 172.004,29 15,39 31.996,94 12.996,133"
         style="fill:#1d3c85;fill-opacity:1;fill-rule:nonzero;stroke:none"
         id="path38" /><path
         d="m 1307.33,322 c 23,-17 45,-33 61,-44 3,81 22,133 34,160 -94,62 -283,111 -429.998,78 89.998,-18 212.998,-104 334.998,-194"
         style="fill:#1d3c85;fill-opacity:1;fill-rule:nonzero;stroke:none"
         id="path40" /><path
         d="m 2129.33,351 c 48,12 72,36 71.01,76 0,39 -17.01,46 -23.01,48 -49,20 -165,-43 -248,-117 72,-14 145,-20 200,-7"
         style="fill:#1d3c85;fill-opacity:1;fill-rule:nonzero;stroke:none"
         id="path42" /><path
         d="m 1187.33,365 c -86,59 -185,119 -244.998,119 -10,0 -17.996,-2 -26,-5 -16.996,-8 -26.996,-26 -30,-56 -1.996,-18 3.004,-32 15,-43 38.004,-33 140.998,-38 285.998,-15"
         style="fill:#1d3c85;fill-opacity:1;fill-rule:nonzero;stroke:none"
         id="path44" /><path
         d="m 1888.33,367 c 45,43 100,84 153,111 28,15 63,30 97,34 -147.99,39 -342.99,-9 -441,-73 27,-19 104,-50 191,-72"
         style="fill:#1d3c85;fill-opacity:1;fill-rule:nonzero;stroke:none"
         id="path46" /><path
         d="m 2232.33,401 c -6,-34 -29,-67 -95,-83 -114,-28 -328,23 -429,75 7.01,-30 13,-72 12.01,-133 0,-10 -36.01,-46 -36.01,-46 8,126 -18,202 -25,214 -1,1 -2,3 -3,4 -3,1 -5,2 -8,2 -67,0 -172,0 -200,0 -3,0 -7,-1 -10,-3 -12,-22 -38,-86 -35,-211 0,0 -32,13 -93,57 -18,13 -61,45 -83,61 -126,-23 -286.998,-39 -348.998,18 -16,14 -24.004,32 -26,53 -227,27 -258.004,-203 39,-220 64,-126 256.998,-76 396.998,-37 55,-55 100,-152 100,-152 57,28 101,74 134,118 43.01,-36 116,-82 230,-113 0,0 0,80 24,160 144.01,-45 335,-96 404.01,23 306.99,14 51.99,212 51.99,213"
         style="fill:#1d3c85;fill-opacity:1;fill-rule:nonzero;stroke:none"
         id="path48" /><path
         d="m 1551.33,2502 c 145,0 282,-24 406,-68 38.01,57 124,204 124,352 0,159 -214,246 -332,250 0,0 -202,-368 -202,-369 l -202,369 c -118,-4 -332,-91 -332,-250 0,-150 88,-299 126,-354 126,45 265,70 412,70"
         style="fill:#cfa406;fill-opacity:1;fill-rule:evenodd;stroke:none"
         id="path50" /><path
         d="m 1676.33,3186 -128,174 -128,-174 128,-290 128,290"
         style="fill:#cfa406;fill-opacity:1;fill-rule:evenodd;stroke:none"
         id="path52" /><path
         d="M 2233.33,2280 H 863.332 V 884 c 0,-134 109,-243 242.998,-243 h 167 c 169,0 261,-72 261,-161 v 0 h 29 v 0 c 0,89 92.01,161 261,161 h 167 c 134.01,0 243,109 243,243 v 1396 h -1"
         style="fill:#c82128;fill-opacity:1;fill-rule:evenodd;stroke:none"
         id="path54" /><path
         d="M 929.336,2217 H 2166.33 V 1761 H 929.336 v 456"
         style="fill:#ffffff;fill-opacity:1;fill-rule:evenodd;stroke:none"
         id="path56" /><path
         d="m 1018.33,2020 c -2,4 -6,6 -11,5 l -17.994,-3 c -3.004,-1 -5,-2 -7.004,-5 -12,-21 -12,-26 -7.996,-30 2.996,-3 20.996,0 41.994,21 4,3 5,8 2,12"
         style="fill:#c82128;fill-opacity:1;fill-rule:nonzero;stroke:none"
         id="path58" /><path
         d="m 2131.33,2024 c -0.99,3 -4,5 -7,5 -3,1 -6,0 -8,-2 0,0 -24,-17 -85,-15 -40.99,2 -84,15 -134,31 -36.99,12 -79,25 -128,36 v 0 c -122,32 -280,10 -396,-6 -30,-4 -57,-8 -79,-10 -29,-3 -57,5 -80,22 -16,12 -29,22 -40,32 -19,16 -34,28 -50,36 -2,5 -4,10 -6,15 -4,15 -14,19 -19,21 -8,2 -16,0 -22,-6 -5,-5 -10,-13 -15,-20 -6,-1 -11,-2 -18,-4 -1,1 -3,3 -4,4 -11,11 -21,11 -26,10 -8,-2 -14,-7 -16.998,-15 -4,-11 -5,-28 -4,-40 -5,-11 -7,-22 -10,-34 -2,-10 -3.996,-20 -8,-30 -8,-19 -13,-33 -13,-34 -2,-5 0,-10 5,-12 1,0 14,-7 32.998,-8 23,-1 30,5 49,19 5,3 10,7 17,12 6,4 15,4 20,-2 9,-9 22,-24 35,-40 3,-4 6,-8 10,-13 6,-8 11,-16 18,-24 -16,-14 -38,-32 -63,-50 -11,-9 -22,-14 -43,-15 -8,0 -18,-9 -20,-18 -1,-5 1,-10 6,-12 5,-3 14,-4 22,-4 12,0 26,2 35,3 7,1 69,27 116,52 5,-2 10,-5 16,-7 -16,-13 -37,-30 -60,-48 -11,-9 -22,-14 -43,-15 -8,0 -18,-9 -20,-18 -1,-5 1,-10 6,-12 5,-3 14,-4 22,-4 12,0 26,2 35,3 9,2 132,53 161,83 8,1 16,2 24,3 73,11 127,30 175,46 48,16 89,31 136,32 66.01,2 98,-36 126.01,-69 10,-12 18.99,-23 28.99,-32 5,-4 11.01,-8 16.01,-10 l 3.99,-2 c 10,-6 15,-11 17,-16 -0.99,-1 -2,-2 -4,-3 -11,-5 -18,-19 -15,-30 2,-8 8.01,-12 16,-12 v 0 c 4,0 26,0 40,1 7.01,0 12.01,4 16,10 7,12 6.01,31 1.01,46 13.99,1 25.99,0 33.99,-5 10,-6 15,-11 17,-16 -0.99,-1 -2,-2 -4,-3 -11,-5 -18,-19 -15,-30 2,-8 8.01,-12 16,-12 v 0 c 4,0 26,0 40,1 7.01,0 12.01,4 16,10 8,13 6.01,35 0,50 -8.99,22 -28,51 -45,61 -11,6 -16,6 -23.99,4 l -3.01,-1 c -11.99,-2 -20,35 -23,48 -2,7 -5,16 -8.99,26 11.99,-7 28.99,-16 50,-26 33.99,-16 78.99,-29 117.99,-29 15,0 29,2 41,6 14,5 24,14 29,26 9,26 -6,57 -7,60"
         style="fill:#1d3c85;fill-opacity:1;fill-rule:nonzero;stroke:none"
         id="path60" /><path
         d="m 1042.33,2072 c -6,-6 -16,-4 -21,-3 0,4 -2,15 4,21 6,6 16,4 21,3 1,-6 2,-15 -4,-21"
         style="fill:#c82128;fill-opacity:1;fill-rule:evenodd;stroke:none"
         id="path62" /><path
         d="m 2359.33,1876 c 5,-3 7,-11 4,-16 -36,-57 25,-82 52.01,-88 6.99,-2 10,-9 7.99,-17 -4,-12 -4,-29 15,-42 33,-22 77.01,0 101,-20 18.5,-15.09 47.17,-52.19 71.74,-86.32 35,20.09 75.85,42.04 117.33,65.69 18.98,46.1 40.14,95.87 53.93,125.63 5,1 10,2 14,4 28,11 41,43 30,70 -10.99,28 -43,41 -70,30 -28,-11 -40.99,-43 -30,-70 3,-6 6,-12 11,-17 -10,-29 -26,-70 -41,-109 -23,158 -45,320 -39,498 9,8 20,17 33.01,30 105.99,104 153.99,45 198.99,67 26.01,13 28,32 24,46 -2,9 3,17 12.01,18 35,5 101.99,25 75.99,96 -2,7 1,14 7,18 35,20 55,69 27.01,101 -27.01,32 -80,20 -104.01,-12 -4,-6 -12,-8 -19,-4 -66,35 -99,-22 -111,-54 -3,-8 -13,-12 -20.99,-8 -12.01,6 -32.01,10 -47.01,-14 -32,-54 -4,-133 -71,-194 6,66 16,134 32,205 l 1.01,1 c 5.99,20 10,45 20,58 43.99,55 120,44 145.99,79 19.01,26 11,45 1,57 -6,7 -5,18 3.01,24 30.99,22 97.99,87 26.99,132 -6.99,4 -6.99,14 -1.99,21 23.99,37 20,99 -24.01,112 -38,12 -88,-20 -95.99,-63 -2.01,-8 -8.01,-13 -16.01,-13 -81,-5 -85,-63 -82,-108 1,-10 -6.99,-18 -16.99,-18 -15,0 -37.01,-6 -39.01,-38 -3,-54 25,-104 29.01,-171 0.99,-10 -1.01,-23 -3.01,-36 -9,-38 -16,-74 -21.99,-110 -13.01,23 -26.01,47 -37.01,69 1,2 3,5 4,7 13.01,27 1,60 -26.99,73 -27.01,13 -60,1 -73.01,-27 -13,-27 -1,-60 27,-73 10,-5 20,-6 30,-5 20,-34 43,-75 66.01,-115 -32.01,-255 -2.01,-458 28.99,-673 1.01,-8 2,-16 3,-23 -11.99,12 -35,37 -46.99,49 -49.01,52 -7.01,93 -25,145 -8.01,23 -20,41 -30,36 -7.01,-3 -14.01,0 -16.01,8 -8.99,33 -27,75 -83,52 -5,-2 -10.99,-1 -14,4 -16.99,29 -59,36 -81,14 -25.99,-25 -13,-71 13,-91"
         style="fill:#cfa406;fill-opacity:1;fill-rule:nonzero;stroke:none"
         id="path64" /><path
         d="m 3074.33,1369 c 34,34 27,96 -10,119 -43.99,27 -103,-9 -120,-53 -3,-8 -12,-13 -21,-11 -104,24 -82.99,-122 -116,-150 -56,-50 -15,-133 -24,-177 -7.99,-40 -37,-77 -54,-106 22.78,163.76 17.13,314.3 1.54,458.92 -19.75,-11.32 -39.3,-22.36 -58.18,-33.24 8.6,-86.7 13.36,-175.39 10.64,-263.68 -19,32 -37,62 -50,85 3,5 5,10 6,16 6.01,29 -12,58 -42,64 -29,6 -58,-12 -64,-42 -6,-29 12.01,-58 42.01,-64 5,-1 10.99,-1 15.99,-1 24.01,-34 57,-85 87,-133 -7.99,-98 -26,-200 -60,-311 -35,-117 -100,-208 -192.99,-273 16.99,23 27.99,50 32.99,83 11,74 61,47 72.01,105 5,25 -11.01,35 -23.01,38 -8,2 -11.99,10 -9,18 12.01,34 21,81 -42,102 -5.99,2 -10,8 -10,14 3,36 -30,72 -62,70 -37,-1 -53.99,-49 -43,-84 2,-6 0,-14 -5.99,-16 -66.01,-20 -27.01,-86 -7.01,-110 5,-6 4,-15 -2.99,-19 -10,-7 -21.01,-21 -11.01,-45 16.01,-42 77,-20 93,-52 6,-12 10,-102 -103,-167 -28,-16 -51,-24 -72,-30 0,-10 0,-29 -4,-55 224,57 384,196 446,404 16.01,52 28,102 38,151 59,43 76,121 132,160 53,37 125,27 174,66 28,22 18,43 7.01,56 -5,10 -3.01,22 6.99,28 43.01,26 94,67 41,136 -5,7 -5,15 1,22"
         style="fill:#cfa406;fill-opacity:1;fill-rule:nonzero;stroke:none"
         id="path66" /><path
         d="m 852.332,414 c -21,6 -41,12 -61,20 -112.004,66 -109,156 -103,167 15.996,32 77,10 93,52 9,25 -1,38 -11,45 -6.004,4 -8,13 -3,19 20,24 59,90 -7,110 -6.004,2 -8,10 -6.004,16 11.004,35 -5,82 -42.996,84 -32.004,1 -65,-35 -62.004,-70 0,-7 -3.996,-12 -10,-14 -62.996,-21 -52.996,-68 -41.996,-102 3,-8 -1,-16 -9,-18 -12,-3 -28,-13 -23,-38 12,-58 61,-31 72,-105 5,-33 16,-60 33,-83 -93,64 -157,156 -193,273 -33.004,110 -51,213 -60,311 30,49 63,99 86.996,133 5,0 11.004,0 16.004,1 28.996,6 48,35 42,64 -6,29 -35,48 -64,42 -29.004,-6 -48,-35 -42,-64 1,-6 2.996,-11 6,-16 -13.004,-24 -31,-54 -50,-85 -3.363,87.4 1.504,175.66 10.16,261.53 -18.344,10.57 -37.324,21.29 -56.492,32.27 -15.742,-145.19 -21.547,-296.33 1.332,-460.8 -17,30 -46,66 -54,106 -9.004,44 32,127 -24.004,177 -32.996,29 -11.996,174 -115.996,150 -9.004,-2 -18,4 -21,11 -17,44 -76,80 -120,53 -38.00388,-23 -44,-84 -10,-119 6,-6 6,-15 1,-22 -53,-69 -2,-110 40.9961,-136 10,-6 12.0039,-17 5,-25 -10.9961,-12 -20.9961,-34 7.0039,-56 49,-39 121,-29 174,-66 56,-40 73,-118 132,-160 10,-49 21.996,-99 38,-151 62,-208 212,-345 436,-401 -3,29 -4,52 -4,64"
         style="fill:#cfa406;fill-opacity:1;fill-rule:nonzero;stroke:none"
         id="path68" /><path
         d="m 88.332,2477 c 5.9961,-4 9,-11 7,-18 -25,-71 42,-91 76,-96 9,-1 14,-10 12,-18 -3,-14 -2,-33 24,-46 45,-22 93,37 199,-67 12.996,-12 22.996,-22 32.996,-30 6.004,-177 -15.996,-340 -38.996,-498 -15,39 -31.004,80 -41.004,109 4.004,5 8.004,10 11.004,17 11,28 -2,59 -30,70 -28,11 -59,-2 -70,-30 -11.004,-28 2,-59 30,-70 5,-2 10,-3 13.996,-4 13.535,-29.2 34.156,-77.66 52.863,-123.01 40.961,-23.38 81.364,-45.11 116.176,-65.03 24.836,34.59 54.16,72.7 72.965,88.04 24,19 67.996,-2 101,20 19,13 19,30 15,42 -2,7 1,15 8,17 27,6 88,32 52,88 -3.004,5 -1,13 4,16 26,19 39,66 12.996,91 -21.996,21 -63.996,15 -80.996,-14 -3,-5 -9.004,-7 -14.004,-4 -55,24 -72.996,-18 -82.996,-52 -2.004,-8 -9,-11 -16,-8 -10,5 -23,-12 -30,-36 -18,-52 25,-93 -25,-145 -12,-13 -35,-37 -47,-49 0.996,8 2,15 3,23 31,214 61,418 29,673 22,40 45,81 66,115 10,-1 20,0 30,5 27,13 39,45 27,73 -13,27 -45,39 -73,27 -28,-12 -39,-45 -27,-73 0.996,-2 3,-5 4,-7 -11,-21 -25,-45 -37,-69 -6.004,36 -13,73 -22,110 -2,13 -4.004,25 -3,36 3.996,67 32,117 28.996,171 -1.996,32 -23.996,38 -38.996,38 -10,0 -17,8 -17,18 3,44 -1,103 -82,108 -8,0 -15,6 -16,13 -8,43 -59,75 -96.004,63 -43.996,-14 -47.996,-75 -23.996,-112 3.996,-7 3.996,-17 -2,-21 -71,-44 -4.004,-109 27,-132 8,-6 8.996,-17 3,-24 -10,-12 -18,-31 0.996,-57 26.004,-36 102.004,-24 146.004,-79 10,-13 13,-38 20,-58 0,-1 1,-1 1,-1 16,-71 26,-139 32,-205 -67,61 -39.004,140 -71,194 -15,25 -35,21 -47,14 -8,-4 -18,-1 -21.004,8 -12.996,32 -45,89 -110.996,54 -6,-3 -14.004,-2 -19.004,4 -22.996,27 -74.9999,38 -102.996,7 -27.0039,-32 -8,-81 27,-101"
         style="fill:#cfa406;fill-opacity:1;fill-rule:nonzero;stroke:none"
         id="path70" /><path
         d="m 2915.62,1839.7 c -88.09,-92.6 -266.42,-170.59 -353.76,-228.61 -38.85,-25.81 -87.98,-55.96 -124.48,-93.82 -49.11,-58.47 -33.12,-123.99 15.93,-205.56 53.46,43.76 121,78.51 167.96,108.41 96.68,61.55 234.83,122.14 308.08,212.44 59.9,73.84 55.08,133.36 63.22,317.42 0.11,2.43 0.26,4.87 0.39,7.32 -14.59,-41.07 -41.16,-82.38 -77.34,-117.6"
         style="fill:#1d3c85;fill-opacity:1;fill-rule:nonzero;stroke:none"
         id="path72" /><path
         d="m 181.047,1838.7 c 88.082,-92.6 266.414,-170.6 353.762,-228.61 38.847,-25.82 87.972,-55.96 124.48,-93.82 49.102,-58.46 33.117,-123.99 -15.937,-205.56 -53.457,43.77 -121,78.51 -167.961,108.41 -96.676,61.54 -234.825,122.15 -308.078,212.45 -59.903,73.83 -55.079,133.36 -63.219,317.41 -0.11,2.43 -0.254,4.87 -0.391,7.32 14.59,-41.07 41.16,-82.38 77.344,-117.6"
         style="fill:#1d3c85;fill-opacity:1;fill-rule:nonzero;stroke:none"
         id="path74" /><path
         d="m 1993.84,1372.93 c -7.62,-4.56 -12.53,-13.5 -14.26,-17.21 6.06,-5.04 11.54,-11.36 15.99,-18.8 4.52,-7.56 7.51,-15.5 9.07,-23.33 3.99,-0.23 14.34,-0.2 22.05,4.41 8.16,4.89 6.08,18.56 2.64,24.77 0,0 -25.15,-0.96 -25.16,-0.95 0,0.01 12.74,21.72 12.74,21.72 -3.85,5.97 -14.91,14.27 -23.07,9.39 z m 33.07,-8.61 -10.95,-15.45 18.79,2.34 5.05,11.92 z m 8.19,-137.39 -72.46,49.11 c 0,0 -12.07,-28.5 -20.51,-14.41 -13.23,22.12 48.22,38.52 47.93,5.73 0,0 27.3,9.35 13.86,34.27 -14.92,27.66 -52.96,8.64 -52.96,8.64 0,0 34.76,24.52 17.43,50.75 -15.6,23.62 -36.75,4.01 -36.75,4.01 29.03,-15.26 -14.48,-61.65 -27.71,-39.53 -8.44,14.1 22.39,11.25 22.39,11.25 l -8.99,87.07 c -88.27,-70.83 -79.26,-101.28 -31.01,-123.99 -1.21,-4.51 -1.98,-8.41 -2.38,-11.7 -41.95,2.86 -35.54,6.38 -35.07,-38.92 39.7,-21.85 33.56,-25.84 50.88,12.49 3.1,-1.21 6.89,-2.38 11.43,-3.44 -2.81,-53.25 19.76,-75.61 123.92,-31.33 z m -820.37,61.2 c -0.41,3.29 -1.17,7.19 -2.39,11.7 48.25,22.71 57.27,53.16 -31,123.99 l -9,-87.07 c 0,0 30.83,2.85 22.4,-11.25 -13.24,-22.12 -56.75,24.27 -27.72,39.53 0,0 -21.14,19.61 -36.75,-4.01 -17.32,-26.23 17.43,-50.75 17.43,-50.75 0,0 -38.04,19.02 -52.96,-8.64 -13.43,-24.92 13.86,-34.27 13.86,-34.27 -0.29,32.79 61.16,16.39 47.93,-5.73 -8.43,-14.09 -20.51,14.41 -20.51,14.41 l -72.46,-49.11 c 104.16,-44.28 126.73,-21.92 123.92,31.33 4.54,1.06 8.34,2.23 11.43,3.44 17.33,-38.33 11.19,-34.34 50.88,-12.49 0.48,45.3 6.89,41.78 -35.06,38.92 z m -155.86,75 5.04,-11.92 18.79,-2.34 -10.94,15.45 z m 22.89,0.41 c 0,0 12.73,-21.71 12.74,-21.72 -0.02,-0.01 -25.17,0.95 -25.17,0.95 -3.43,-6.21 -5.52,-19.88 2.65,-24.77 7.71,-4.61 18.06,-4.64 22.05,-4.41 1.55,7.83 4.55,15.77 9.07,23.33 4.45,7.44 9.93,13.76 15.99,18.8 -1.74,3.71 -6.65,12.65 -14.26,17.21 -8.16,4.88 -19.23,-3.42 -23.07,-9.39 z M 2004.33,1516 c 72,-142 53,-143 129,-290 -77.99,-46 -244,-168 -244,-168 -76,136 -58,141 -126,269 l -723,-568 -37,47 497,391 -165,130 c -68,-128 -51,-133 -126,-269 0,0 -166,122 -243.998,168 75.998,147 56.998,147 128.998,290 l -31,25 c -20,-22 -57,-18 -69.998,10 l -63,133 143.998,-30 c 29,-6 43,-40 26,-65 l 448,-352 448,352 c -17,24 -4,59 26,65 l 144,30 -63,-133 c -12.99,-27 -50,-32 -70,-10 z m -428.99,-379 481.99,-378 37,47 -470,370 z m -57.01,361 -43,12 -8,-29 51,-14 v -68 h 60 v 51 l 43,-12 8,29 -51,14 v 65 h 82.01 v 56 h -82.01 v 77 h -60 v -77 h -82 v -56 h 82 z m 144,-621 c 0,-65 -53,-118 -118,-118 -65,0 -118,53 -118,118 0,1 0,3 0,4 13,-22 37,-37 65,-37 42,0 76,34 76,76 0,32 -20,60 -49,71 9,2 17,3 26,3 65,0 117,-52 118,-117"
         style="fill:#cfa406;fill-opacity:1;fill-rule:nonzero;stroke:none"
         id="path76" /></g></g></svg>
