<svg width="20" height="20" viewBox="0 0 20 20" fill="none" xmlns="http://www.w3.org/2000/svg">
<g clip-path="url(#clip0)">
<path d="M18.6363 8.18182H11.8181V1.36364C11.8181 0.610906 11.2072 0 10.4545 0H9.54545C8.79272 0 8.18182 0.610906 8.18182 1.36364V8.18182H1.36364C0.610906 8.18182 0 8.79272 0 9.54545V10.4545C0 11.2072 0.610906 11.8181 1.36364 11.8181H8.18182V18.6363C8.18182 19.389 8.79272 19.9999 9.54545 19.9999H10.4545C11.2072 19.9999 11.8181 19.389 11.8181 18.6363V11.8181H18.6363C19.389 11.8181 19.9999 11.2072 19.9999 10.4545V9.54545C19.9999 8.79272 19.389 8.18182 18.6363 8.18182Z" fill="black"/>
</g>
<defs>
<clipPath id="clip0">
<rect width="20" height="20" fill="white"/>
</clipPath>
</defs>
</svg>
