<svg width="51" height="41" viewBox="0 0 51 41" fill="none" xmlns="http://www.w3.org/2000/svg">
<g clip-path="url(#clip0)">
<path d="M23.549 9.73447L1.29877 27.535C0.783738 27.9467 0.5 28.4963 0.5 29.0823C0.5 29.6683 0.783738 30.2179 1.29877 30.6296L2.93697 31.9405C4.00444 32.7935 5.73939 32.7935 6.80523 31.9405L25.4896 16.9929L44.1948 31.9571C44.7098 32.3688 45.3964 32.5961 46.1285 32.5961C46.8614 32.5961 47.548 32.3688 48.0634 31.9571L49.7012 30.6462C50.2163 30.2341 50.5 29.6849 50.5 29.0989C50.5 28.5129 50.2163 27.9633 49.7012 27.5516L27.4307 9.73447C26.914 9.32179 26.2242 9.09513 25.4909 9.09643C24.7547 9.09513 24.0653 9.32179 23.549 9.73447Z" fill="white"/>
</g>
<defs>
<clipPath id="clip0">
<rect width="40" height="50" fill="white" transform="translate(0.5 40.8461) rotate(-90)"/>
</clipPath>
</defs>
</svg>
